<svg xmlns="http://www.w3.org/2000/svg" xmlns:xlink="http://www.w3.org/1999/xlink" width="1047.5" height="955.04" viewBox="0 0 1047.5 955.04"><defs><style>.cls-1,.cls-3{fill:none;}.cls-1{stroke:red;}.cls-1,.cls-2,.cls-3{stroke-miterlimit:10;stroke-width:7px;}.cls-2{fill:#fff;}.cls-2,.cls-3{stroke:#c1272d;}</style></defs><title>crossroads</title><g id="Layer_1" data-name="Layer 1"><image x="62.06" y="58.03" width="937" height="829" xlink:href="crossroads1.png"/></g><g id="road-a1"><path class="cls-1" d="M491,864V518s-3-176-159-174-394,6-394,6" transform="translate(62.06 58.03)"/></g><g id="road-d1"><path class="cls-2" d="M-48,401H366s158.32-9.65,164.8-157c.12-2.62.18-5.28.2-8,1-155,.6-288,.6-288" transform="translate(62.06 58.03)"/></g><g id="road-a2"><polyline class="cls-1" points="576.06 909.03 576.06 575.03 574.56 291.53 572.06 0.03"/></g><g id="road-a3"><polyline class="cls-1" points="598.06 955.03 597.06 571.03 594.06 255.53 594.06 11.53"/></g><g id="road-a4"><path class="cls-1" d="M561,856.33,555.67,515s2.66-98.67,132-97.33,286-11.34,286-11.34" transform="translate(62.06 58.03)"/></g><g id="road-d3"><path class="cls-3" d="M-41,445H334s82-1,82,94V878" transform="translate(62.06 58.03)"/></g><g id="road-d2"><path class="cls-3" d="M-41,424l382-1s128-4.67,203.33-4,150.67,1.87,177.34-.07,131.33,0,131.33,0,113.41-10.4,130-26.6" transform="translate(62.06 58.03)"/></g></svg>